<svg width="25" height="24" viewBox="0 0 25 24" fill="none" xmlns="http://www.w3.org/2000/svg">
<path fill-rule="evenodd" clip-rule="evenodd" d="M11.7919 3.63313C12.3807 2.85977 11.5971 1.75424 10.681 2.04869C9.61194 2.39834 8.57214 2.94307 7.60744 3.70293C4.01358 6.53837 2.74643 11.6663 4.59327 15.9067C7.05319 21.5424 13.6281 23.633 18.7035 20.6286C19.3336 20.2556 19.8979 19.8271 20.4188 19.3418C21.1341 18.6705 20.6058 17.4257 19.6445 17.5581C17.9738 17.8053 16.2692 17.5327 14.7513 16.7756C13.2334 16.0185 11.972 14.8117 11.1305 13.3114C9.35138 10.1519 9.73038 6.32848 11.7919 3.63313ZM6.42667 15.1076C4.98772 11.803 5.90925 7.81511 8.56373 5.50713C7.61859 8.31493 7.82221 11.5114 9.38696 14.2912C10.4217 16.1353 11.977 17.6268 13.8586 18.5653C14.7113 18.9907 15.6123 19.293 16.5361 19.468C12.7169 20.9606 8.23071 19.2394 6.42667 15.1076Z" fill="white"/>
</svg>
