<svg width="20" height="20" viewBox="0 0 20 20" fill="none" xmlns="http://www.w3.org/2000/svg">
<path d="M9 6C9 5.44772 9.44772 5 10 5L13 5C13.5523 5 14 5.44771 14 6C14 6.55228 13.5523 7 13 7L10 7C9.44772 7 9 6.55228 9 6Z" fill="#27272A"/>
<path d="M10 9C9.44772 9 9 9.44772 9 10C9 10.5523 9.44772 11 10 11H13C13.5523 11 14 10.5523 14 10C14 9.44771 13.5523 9 13 9H10Z" fill="#27272A"/>
<path d="M9 14C9 13.4477 9.44772 13 10 13H13C13.5523 13 14 13.4477 14 14C14 14.5523 13.5523 15 13 15H10C9.44772 15 9 14.5523 9 14Z" fill="#27272A"/>
<path d="M7 7C7.55228 7 8 6.55228 8 6C8 5.44772 7.55228 5 7 5C6.44772 5 6 5.44772 6 6C6 6.55228 6.44772 7 7 7Z" fill="#27272A"/>
<path d="M8 10C8 10.5523 7.55228 11 7 11C6.44772 11 6 10.5523 6 10C6 9.44771 6.44772 9 7 9C7.55228 9 8 9.44771 8 10Z" fill="#27272A"/>
<path d="M7 15C7.55228 15 8 14.5523 8 14C8 13.4477 7.55228 13 7 13C6.44772 13 6 13.4477 6 14C6 14.5523 6.44772 15 7 15Z" fill="#27272A"/>
<path fill-rule="evenodd" clip-rule="evenodd" d="M2 2C2 0.895432 2.89543 0 4 0H16C17.1046 0 18 0.89543 18 2V18C18 19.1046 17.1046 20 16 20H4C2.89543 20 2 19.1046 2 18V2ZM16 2L4 2V18H16V2Z" fill="#27272A"/>
</svg>
