<svg width="25" height="24" viewBox="0 0 25 24" fill="none" xmlns="http://www.w3.org/2000/svg">
<path d="M14.4775 14C17.4398 14.0001 19.8406 16.4011 19.8408 19.3633V20.0908C19.8408 20.5257 19.5597 20.9104 19.1455 21.043L19.1436 21.0439L19.1396 21.0449L19.1309 21.0479L19.1025 21.0566C19.0794 21.0636 19.0475 21.0735 19.0068 21.085C18.9251 21.108 18.8078 21.1389 18.6562 21.1758C18.3527 21.2497 17.9097 21.3463 17.333 21.4414C16.1795 21.6317 14.4889 21.8183 12.2959 21.8184C10.1027 21.8184 8.41143 21.6317 7.25781 21.4414C6.68127 21.3463 6.23907 21.2497 5.93555 21.1758C5.78412 21.1389 5.66677 21.108 5.58496 21.085C5.54408 21.0734 5.51151 21.0636 5.48828 21.0566L5.45996 21.0479L5.45117 21.0449L5.44727 21.0439H5.44629C5.44602 21.0439 5.44522 21.0432 5.75 20.0908L5.44531 21.043C5.03115 20.9104 4.75 20.5257 4.75 20.0908V19.3633C4.75019 16.4011 7.1511 14.0002 10.1133 14H14.4775ZM10.1133 16C8.27311 16.0002 6.7781 17.478 6.75 19.3115C6.97446 19.3597 7.25276 19.4133 7.58301 19.4678C8.63394 19.6411 10.2165 19.8184 12.2959 19.8184C14.3751 19.8183 15.957 19.6411 17.0078 19.4678C17.3381 19.4133 17.6163 19.3597 17.8408 19.3115C17.8127 17.478 16.3177 16.0001 14.4775 16H10.1133ZM12.2959 3C14.856 3.00022 16.9316 5.07657 16.9316 7.63672C16.9315 8.88912 16.4337 10.1926 15.6543 11.1875C14.8777 12.1786 13.7062 12.9998 12.2959 13C10.8854 13 9.71415 12.1787 8.9375 11.1875C8.15796 10.1925 7.65927 8.88929 7.65918 7.63672C7.65918 5.07643 9.73561 3 12.2959 3ZM12.2959 5C10.8402 5 9.65918 6.181 9.65918 7.63672C9.65928 8.39189 9.97531 9.26946 10.5117 9.9541C11.0513 10.6427 11.6984 11 12.2959 11C12.8933 10.9998 13.5397 10.6425 14.0791 9.9541C14.6155 9.26945 14.9315 8.39191 14.9316 7.63672C14.9316 6.18114 13.7514 5.00022 12.2959 5Z" fill="white"/>
</svg>
